<svg xmlns="http://www.w3.org/2000/svg" xmlns:xlink="http://www.w3.org/1999/xlink" viewBox="0 0 158.12 34.24"><defs><style>.cls-1{fill:#fff;}.cls-1,.cls-2,.cls-3,.cls-4,.cls-5,.cls-6,.cls-7{stroke:#000;stroke-miterlimit:10;stroke-width:3px;}.cls-2{fill:url(#linear-gradient);}.cls-3{fill:url(#linear-gradient-2);}.cls-4{fill:url(#linear-gradient-3);}.cls-5{fill:url(#linear-gradient-4);}.cls-6{fill:none;}.cls-7{fill:url(#linear-gradient-5);}</style><linearGradient id="linear-gradient" x1="109.5" y1="17.12" x2="118.5" y2="17.12" gradientUnits="userSpaceOnUse"><stop offset="0" stop-color="#fff"/><stop offset="0" stop-color="#f6f6f6"/><stop offset="0" stop-color="#c8c8c8"/><stop offset="0" stop-color="#9d9d9d"/><stop offset="0" stop-color="#777"/><stop offset="0" stop-color="#575757"/><stop offset="0" stop-color="#3b3b3b"/><stop offset="0" stop-color="#252525"/><stop offset="0" stop-color="#141414"/><stop offset="0" stop-color="#090909"/><stop offset="0" stop-color="#020202"/><stop offset="0"/></linearGradient><linearGradient id="linear-gradient-2" x1="136.5" y1="21.62" x2="145.5" y2="21.62" xlink:href="#linear-gradient"/><linearGradient id="linear-gradient-3" x1="82.5" y1="26.12" x2="100.5" y2="26.12" xlink:href="#linear-gradient"/><linearGradient id="linear-gradient-4" x1="46.5" y1="21.62" x2="64.5" y2="21.62" xlink:href="#linear-gradient"/><linearGradient id="linear-gradient-5" x1="19.5" y1="17.12" x2="37.5" y2="17.12" xlink:href="#linear-gradient"/></defs><title>Asset 6</title><g id="Layer_2" data-name="Layer 2"><g id="Layer_1-2" data-name="Layer 1"><polygon class="cls-1" points="46.5 21.62 46.5 12.62 55.5 3.62 64.5 3.62 73.5 12.62 73.5 30.62 64.5 30.62 64.5 21.62 55.5 21.62 64.5 12.62 55.5 12.62 46.5 21.62"/><polygon class="cls-1" points="100.5 3.62 91.5 3.62 82.5 12.62 91.5 21.62 82.5 30.62 91.5 30.62 100.5 30.62 100.5 21.62 91.5 12.62 100.5 3.62"/><polygon class="cls-1" points="109.5 30.62 118.5 21.62 127.5 30.62 127.5 21.62 118.5 12.62 127.5 3.62 109.5 3.62 109.5 30.62"/><polygon class="cls-1" points="136.5 3.62 136.5 30.62 154.5 30.62 145.5 21.62 154.5 21.62 145.5 12.62 154.5 3.62 136.5 3.62"/><polygon class="cls-2" points="109.5 3.62 118.5 12.62 118.5 21.62 109.5 30.62 109.5 21.62 109.5 3.62"/><polygon class="cls-3" points="136.5 12.62 145.5 21.62 145.5 30.62 136.5 30.62 136.5 12.62"/><polygon class="cls-4" points="82.5 30.62 100.5 21.62 100.5 30.62 82.5 30.62"/><polygon class="cls-5" points="55.5 12.62 46.5 21.62 46.5 30.62 55.5 30.62 64.5 21.62 55.5 21.62 55.5 12.62"/><polyline class="cls-6" points="55.5 12.62 64.5 12.62 55.5 21.62"/><polygon class="cls-7" points="37.5 30.62 37.5 3.62 28.5 3.62 19.5 12.62 28.5 21.62 28.5 30.62 37.5 30.62"/><polygon class="cls-1" points="19.5 12.62 10.5 3.62 1.5 3.68 1.5 30.62 10.5 30.62 10.5 21.62 19.5 30.62 28.5 21.62 19.5 12.62"/></g></g></svg>