<?xml version="1.0" standalone="no"?>
<!DOCTYPE svg PUBLIC "-//W3C//DTD SVG 20010904//EN"
 "http://www.w3.org/TR/2001/REC-SVG-20010904/DTD/svg10.dtd">
<svg version="1.0" xmlns="http://www.w3.org/2000/svg"
 width="640.000000pt" height="640.000000pt" viewBox="0 0 640.000000 640.000000"
 preserveAspectRatio="xMidYMid meet">
<metadata>
Created by potrace 1.11, written by Peter Selinger 2001-2013
</metadata>
<g transform="translate(0.000000,640.000000) scale(0.100000,-0.100000)"
fill="#000000" stroke="none">
<path d="M2 3258 l3 -2481 545 2 c300 1 765 3 1035 4 l490 2 6 30 c3 17 2 37
-2 46 -4 8 -4 21 1 29 4 7 4 24 0 36 -6 14 -5 26 0 29 5 3 6 15 0 29 -4 12 -4
29 0 36 5 8 6 18 3 23 -3 4 -4 34 -4 65 1 56 1 67 1 117 0 14 1 40 1 58 0 17
0 46 0 62 -1 17 -1 38 -1 48 0 9 0 23 -1 30 0 6 1 33 3 60 2 26 1 47 -2 47 -3
0 -5 29 -5 65 0 36 3 65 6 65 4 0 4 15 0 33 -22 97 -17 92 562 -486 l557 -555
556 555 c306 305 558 552 561 549 3 -2 5 -29 4 -58 -1 -72 -2 -127 -2 -163 1
-16 1 -39 1 -50 0 -11 0 -29 0 -40 -1 -11 -1 -26 -1 -32 1 -7 1 -20 1 -28 0
-8 0 -23 0 -32 0 -10 0 -38 -1 -63 -1 -25 -1 -51 0 -57 0 -7 1 -20 1 -28 0 -8
0 -22 0 -30 0 -8 0 -22 0 -30 0 -8 0 -23 0 -32 0 -10 0 -29 -1 -43 0 -14 0
-32 0 -40 0 -8 0 -35 0 -60 0 -25 0 -51 0 -57 1 -12 1 -26 1 -55 0 -7 1 -26 2
-43 l3 -30 985 0 c542 0 1009 2 1038 3 l52 4 0 2474 0 2474 -947 0 -948 0
-649 -650 c-358 -358 -654 -649 -658 -648 -5 2 -300 295 -657 651 l-648 647
-946 0 -947 0 2 -2482z"/>
</g>
</svg>
